<svg width="12" height="7" viewBox="0 0 12 7" fill="none" xmlns="http://www.w3.org/2000/svg">
<path d="M11.2227 0.865234C11.2734 0.941406 11.2988 1.01758 11.2988 1.09375C11.2988 1.19531 11.2734 1.24609 11.2227 1.29688L5.91602 6.62891C5.83984 6.67969 5.76367 6.70508 5.6875 6.70508C5.58594 6.70508 5.53516 6.67969 5.48438 6.62891L0.152344 1.29688C0.101562 1.24609 0.0761719 1.19531 0.0761719 1.09375C0.0761719 1.01758 0.101562 0.941406 0.152344 0.865234L0.660156 0.357422C0.710938 0.306641 0.761719 0.28125 0.863281 0.28125C0.939453 0.28125 1.01562 0.306641 1.0918 0.357422L5.6875 4.95312L10.2832 0.357422C10.334 0.306641 10.4102 0.28125 10.5117 0.28125C10.5879 0.28125 10.6641 0.306641 10.7148 0.357422L11.2227 0.865234Z" fill="white"/>
</svg>
