<svg viewBox="0 0 173 35" fill="none" xmlns="http://www.w3.org/2000/svg">
<path d="M1.65039 12.5156H8.54395C9.95736 12.5156 11.1719 12.7272 12.1875 13.1504C13.2116 13.5736 13.9987 14.1999 14.5488 15.0293C15.099 15.8587 15.374 16.8786 15.374 18.0889C15.374 19.0791 15.2048 19.9297 14.8662 20.6406C14.5361 21.3431 14.0664 21.9313 13.457 22.4053C12.8561 22.8708 12.1494 23.2432 11.3369 23.5225L10.1309 24.1572H4.13867L4.11328 21.1865H8.56934C9.23796 21.1865 9.79232 21.068 10.2324 20.8311C10.6725 20.5941 11.0026 20.264 11.2227 19.8408C11.4512 19.4176 11.5654 18.9268 11.5654 18.3682C11.5654 17.7757 11.4554 17.2637 11.2354 16.832C11.0153 16.4004 10.681 16.0703 10.2324 15.8418C9.78385 15.6133 9.22103 15.499 8.54395 15.499H5.45898V31H1.65039V12.5156ZM11.9844 31L7.76953 22.7607L11.7939 22.7354L16.0596 30.8223V31H11.9844ZM38.1702 21.3262V22.2021C38.1702 23.6071 37.9798 24.8682 37.5989 25.9854C37.2181 27.1025 36.6807 28.0547 35.9866 28.8418C35.2926 29.6204 34.4632 30.2171 33.4984 30.6318C32.542 31.0465 31.4798 31.2539 30.3118 31.2539C29.1523 31.2539 28.0902 31.0465 27.1253 30.6318C26.1689 30.2171 25.3395 29.6204 24.637 28.8418C23.9346 28.0547 23.3887 27.1025 22.9993 25.9854C22.6185 24.8682 22.428 23.6071 22.428 22.2021V21.3262C22.428 19.9128 22.6185 18.6517 22.9993 17.543C23.3802 16.4258 23.9176 15.4736 24.6116 14.6865C25.3141 13.8994 26.1435 13.2985 27.0999 12.8838C28.0648 12.4691 29.1269 12.2617 30.2864 12.2617C31.4544 12.2617 32.5166 12.4691 33.473 12.8838C34.4378 13.2985 35.2672 13.8994 35.9613 14.6865C36.6637 15.4736 37.2054 16.4258 37.5863 17.543C37.9756 18.6517 38.1702 19.9128 38.1702 21.3262ZM34.3236 22.2021V21.3008C34.3236 20.319 34.2347 19.4557 34.057 18.7109C33.8792 17.9661 33.6168 17.3398 33.2698 16.832C32.9228 16.3242 32.4997 15.9434 32.0003 15.6895C31.501 15.4271 30.9297 15.2959 30.2864 15.2959C29.6432 15.2959 29.0719 15.4271 28.5726 15.6895C28.0817 15.9434 27.6627 16.3242 27.3157 16.832C26.9772 17.3398 26.7191 17.9661 26.5413 18.7109C26.3636 19.4557 26.2747 20.319 26.2747 21.3008V22.2021C26.2747 23.1755 26.3636 24.0387 26.5413 24.792C26.7191 25.5368 26.9814 26.1673 27.3284 26.6836C27.6754 27.1914 28.0986 27.5765 28.598 27.8389C29.0973 28.1012 29.6686 28.2324 30.3118 28.2324C30.9551 28.2324 31.5264 28.1012 32.0257 27.8389C32.5251 27.5765 32.944 27.1914 33.2825 26.6836C33.6211 26.1673 33.8792 25.5368 34.057 24.792C34.2347 24.0387 34.3236 23.1755 34.3236 22.2021ZM47.5729 12.5156L51.4323 20.9453L55.2916 12.5156H59.443L53.362 24.2715V31H49.5026V24.2715L43.4088 12.5156H47.5729ZM71.6513 15.6768L66.624 31H62.5742L69.4423 12.5156H72.0195L71.6513 15.6768ZM75.8281 31L70.788 15.6768L70.3818 12.5156H72.9843L79.8906 31H75.8281ZM75.5996 24.1191V27.1025H65.8369V24.1191H75.5996ZM98.1673 28.0293V31H88.8616V28.0293H98.1673ZM90.093 12.5156V31H86.2845V12.5156H90.093ZM119.491 12.5156V31H117.917L107.291 15.207V31H105.729V12.5156H107.291L117.942 28.3086V12.5156H119.491ZM137.003 29.667V31H126.605V29.667H137.003ZM127.075 12.5156V31H125.513V12.5156H127.075ZM135.708 20.8057V22.1387H126.605V20.8057H135.708ZM136.939 12.5156V13.8613H126.605V12.5156H136.939ZM152.077 26.4551C152.077 25.9473 151.993 25.4945 151.823 25.0967C151.654 24.6989 151.375 24.3434 150.985 24.0303C150.604 23.7087 150.088 23.4124 149.437 23.1416C148.793 22.8623 147.989 22.5872 147.024 22.3164C146.102 22.054 145.268 21.7663 144.523 21.4531C143.779 21.14 143.14 20.7803 142.606 20.374C142.082 19.9678 141.68 19.4938 141.4 18.9521C141.121 18.402 140.981 17.763 140.981 17.0352C140.981 16.3242 141.134 15.6768 141.438 15.0928C141.743 14.5088 142.171 14.0052 142.721 13.582C143.279 13.1589 143.935 12.833 144.688 12.6045C145.45 12.376 146.284 12.2617 147.189 12.2617C148.484 12.2617 149.602 12.5072 150.541 12.998C151.489 13.4889 152.221 14.1533 152.737 14.9912C153.262 15.8206 153.524 16.7516 153.524 17.7842H151.963C151.963 16.9801 151.772 16.265 151.392 15.6387C151.019 15.0039 150.478 14.5088 149.767 14.1533C149.064 13.7894 148.205 13.6074 147.189 13.6074C146.174 13.6074 145.319 13.764 144.625 14.0771C143.939 14.3818 143.419 14.7923 143.063 15.3086C142.716 15.8164 142.543 16.3835 142.543 17.0098C142.543 17.4499 142.628 17.8561 142.797 18.2285C142.966 18.5924 143.241 18.9352 143.622 19.2568C144.011 19.57 144.523 19.8662 145.158 20.1455C145.793 20.4163 146.576 20.6745 147.507 20.9199C148.489 21.1908 149.36 21.4912 150.122 21.8213C150.884 22.1514 151.527 22.5322 152.052 22.9639C152.576 23.387 152.974 23.8822 153.245 24.4492C153.516 25.0163 153.651 25.6764 153.651 26.4297C153.651 27.1829 153.491 27.86 153.169 28.4609C152.856 29.0534 152.411 29.557 151.836 29.9717C151.269 30.3864 150.596 30.7038 149.817 30.9238C149.047 31.1439 148.205 31.2539 147.291 31.2539C146.47 31.2539 145.653 31.1481 144.841 30.9365C144.028 30.7249 143.284 30.3991 142.606 29.959C141.938 29.5104 141.4 28.9349 140.994 28.2324C140.596 27.5299 140.397 26.6921 140.397 25.7188H141.946C141.946 26.4974 142.103 27.1533 142.416 27.6865C142.729 28.2197 143.144 28.6514 143.66 28.9814C144.185 29.3115 144.76 29.5527 145.387 29.7051C146.021 29.849 146.656 29.9209 147.291 29.9209C148.264 29.9209 149.106 29.777 149.817 29.4893C150.537 29.2015 151.091 28.7995 151.48 28.2832C151.878 27.7585 152.077 27.1491 152.077 26.4551ZM164.524 12.5156V31H162.975V12.5156H164.524ZM170.859 12.5156V13.8613H156.653V12.5156H170.859Z" fill="#0086B5"/>
<path d="M166.492 6.22222C166.492 6.33943 166.457 6.454 166.392 6.55145C166.327 6.6489 166.235 6.72486 166.127 6.76971C166.02 6.81456 165.901 6.8263 165.787 6.80343C165.672 6.78056 165.567 6.72413 165.484 6.64125C165.402 6.55837 165.346 6.45278 165.323 6.33783C165.3 6.22288 165.312 6.10373 165.356 5.99545C165.401 5.88717 165.477 5.79462 165.574 5.7295C165.671 5.66439 165.785 5.62963 165.902 5.62963C166.058 5.62963 166.208 5.69207 166.319 5.8032C166.43 5.91433 166.492 6.06506 166.492 6.22222ZM169 6.51852C169 6.59169 168.982 6.66373 168.948 6.72824C168.913 6.79275 168.864 6.84773 168.803 6.88831L168.115 7.34896V8C168.114 9.0605 167.693 10.0772 166.947 10.8271C166.2 11.577 165.187 11.9988 164.131 12H160.443C160.36 12 160.279 11.9768 160.209 11.933C160.139 11.8892 160.082 11.8266 160.046 11.7522C160.009 11.6778 159.994 11.5947 160.002 11.5121C160.01 11.4296 160.041 11.351 160.091 11.2851L163.393 6.96036V6.37037C163.394 5.80906 163.592 5.266 163.953 4.83782C164.315 4.40964 164.816 4.12412 165.367 4.03209C165.919 3.94006 166.485 4.04747 166.965 4.33522C167.445 4.62297 167.808 5.07239 167.988 5.60348L168.803 6.14873C168.864 6.18931 168.913 6.2443 168.948 6.30881C168.982 6.37332 169 6.44535 169 6.51852ZM167.759 6.51852L167.365 6.25452C167.275 6.19398 167.21 6.10213 167.182 5.99649C167.092 5.64787 166.878 5.34434 166.58 5.1427C166.283 4.94105 165.923 4.8551 165.567 4.90093C165.211 4.94675 164.884 5.12122 164.647 5.39168C164.41 5.66215 164.279 6.01008 164.279 6.37037V7.11111C164.279 7.20889 164.247 7.30393 164.187 7.38153L161.34 11.1111H164.131C164.953 11.1102 165.74 10.7821 166.321 10.1989C166.902 9.61561 167.229 8.82483 167.23 8V7.11111C167.23 7.03794 167.247 6.96591 167.282 6.9014C167.316 6.83689 167.366 6.7819 167.427 6.74132L167.759 6.51852ZM164.745 8.23987C164.699 8.20436 164.646 8.17832 164.59 8.16324C164.534 8.14816 164.475 8.14433 164.417 8.15198C164.36 8.15962 164.304 8.17859 164.254 8.20779C164.204 8.237 164.159 8.27587 164.124 8.32219L162.993 9.80368C162.958 9.84999 162.932 9.90286 162.917 9.95926C162.902 10.0157 162.898 10.0745 162.905 10.1324C162.913 10.1903 162.932 10.2461 162.961 10.2966C162.99 10.3472 163.029 10.3915 163.075 10.427C163.121 10.4626 163.174 10.4886 163.23 10.5037C163.286 10.5188 163.345 10.5226 163.402 10.5149C163.46 10.5072 163.515 10.4882 163.566 10.459C163.616 10.4298 163.66 10.3908 163.696 10.3445L164.827 8.86299C164.862 8.81667 164.888 8.76381 164.903 8.70743C164.918 8.65105 164.922 8.59225 164.914 8.53438C164.907 8.47652 164.888 8.42073 164.859 8.3702C164.83 8.31967 164.791 8.27538 164.745 8.23987Z" fill="#0086B5"/>
</svg>
