<svg viewBox="0 0 259 259" fill="none" xmlns="http://www.w3.org/2000/svg">
<circle cx="129.5" cy="129.5" r="129.5" fill="#2F80ED"/>
<path d="M188.182 104.728C189.638 104.728 191.116 104.387 192.494 103.667C196.395 101.628 201.722 91.7821 202.75 89.8293C203.464 88.4744 202.571 86.7726 201.055 86.5854C198.864 86.3149 187.74 85.0695 183.838 87.1083C181.627 88.2643 179.998 90.2121 179.252 92.5933C178.525 94.9134 178.723 97.3733 179.803 99.5442L173.781 104.706V92.5159C177.861 91.5152 180.898 87.8282 180.898 83.4435C180.898 79.0419 174.641 69.7601 173.386 67.9438C172.517 66.6854 170.595 66.6854 169.726 67.9438C168.472 69.7601 162.214 79.0419 162.214 83.4435C162.214 87.8282 165.251 91.5149 169.332 92.5159V107.318H159.693C158.465 107.318 157.469 108.314 157.469 109.542V120.784L135.834 104.141C133.119 102.053 129.327 102.052 126.611 104.141L87.5703 134.173C86.5965 134.922 86.4145 136.318 87.1633 137.292C87.9123 138.266 89.3086 138.448 90.2827 137.699L129.325 107.667C130.443 106.807 132.004 106.807 133.122 107.667L158.338 127.064C159.773 128.167 161.918 127.108 161.918 125.301V111.766H181.195V143.552C181.195 144.242 181.516 144.893 182.063 145.315L194.809 155.119C196.17 156.166 196.425 158.124 195.379 159.485C194.344 160.831 192.359 161.091 191.012 160.055L132.579 115.107C131.78 114.492 130.666 114.492 129.867 115.107L71.4347 160.055C70.0883 161.09 68.1025 160.83 67.0677 159.485C66.0321 158.139 66.2929 156.153 67.6376 155.118L82.1491 143.955C83.1229 143.206 83.3049 141.81 82.5561 140.836C81.807 139.862 80.4105 139.68 79.4367 140.429L64.9252 151.592C61.6591 154.104 61.0268 158.928 63.5417 162.197C66.084 165.502 70.8413 166.123 74.1468 163.58L131.223 119.676L188.299 163.58C191.572 166.098 196.39 165.465 198.904 162.197C201.447 158.891 200.826 154.134 197.521 151.592L185.644 142.456V109.542C185.644 108.313 184.648 107.317 183.419 107.317H177.569L182.677 102.939C184.277 104.098 186.209 104.728 188.182 104.728ZM183.497 93.9241C183.888 92.6768 184.741 91.6564 185.9 91.0508C186.75 90.6064 188.851 90.4166 191.431 90.4166C193.21 90.4166 195.218 90.5068 197.199 90.6657C194.749 94.874 191.871 98.9721 190.433 99.7237C189.081 100.431 187.547 100.44 186.242 99.8832L189.612 96.9946C190.545 96.1951 190.653 94.791 189.853 93.8583C189.054 92.9262 187.65 92.8174 186.717 93.6173L183.396 96.4639C183.206 95.6314 183.234 94.7608 183.497 93.9241ZM171.557 81.2191C170.328 81.2191 169.332 82.2151 169.332 83.4435V87.7966C167.751 86.9849 166.663 85.3403 166.663 83.4435C166.663 81.8231 168.962 77.374 171.557 73.2509C174.152 77.3721 176.45 81.8206 176.45 83.4435C176.45 85.3403 175.363 86.9849 173.781 87.7966V83.4435C173.781 82.2151 172.785 81.2191 171.557 81.2191Z" fill="white"/>
<g clip-path="url(#clip0_180_30)">
<path d="M87.3751 105.063C87.3751 105.681 87.1918 106.285 86.8484 106.799C86.505 107.313 86.017 107.713 85.4459 107.95C84.8749 108.186 84.2466 108.248 83.6404 108.127C83.0342 108.007 82.4774 107.709 82.0403 107.272C81.6033 106.835 81.3057 106.278 81.1851 105.672C81.0645 105.066 81.1264 104.438 81.3629 103.867C81.5994 103.296 82 102.808 82.5139 102.464C83.0278 102.121 83.632 101.938 84.2501 101.938C85.0788 101.938 85.8737 102.267 86.4597 102.853C87.0458 103.439 87.375 104.234 87.3751 105.063ZM100.656 106.625C100.656 107.011 100.561 107.391 100.379 107.731C100.197 108.071 99.9337 108.361 99.6126 108.575L95.9688 111.004V114.438C95.9625 120.03 93.7381 125.392 89.7836 129.346C85.8291 133.301 80.4675 135.525 74.875 135.531H55.3438C54.9064 135.531 54.4778 135.409 54.1063 135.178C53.7349 134.947 53.4355 134.617 53.2419 134.225C53.0484 133.832 52.9685 133.394 53.0112 132.959C53.054 132.523 53.2176 132.109 53.4838 131.761L70.9688 108.955V105.844C70.9693 102.884 72.02 100.02 73.9339 97.7619C75.8479 95.5039 78.5009 93.9983 81.4209 93.513C84.3409 93.0276 87.3383 93.5941 89.8798 95.1115C92.4213 96.6289 94.3419 98.9989 95.2999 101.8L99.6126 104.675C99.9337 104.889 100.197 105.179 100.379 105.519C100.561 105.859 100.656 106.239 100.656 106.625ZM94.0874 106.625L91.9994 105.233C91.5205 104.914 91.1758 104.429 91.0311 103.872C90.5513 102.034 89.4181 100.433 87.8436 99.3697C86.269 98.3063 84.3609 97.8531 82.4764 98.0947C80.5918 98.3364 78.8599 99.2564 77.6046 100.683C76.3493 102.109 75.6567 103.944 75.6563 105.844V109.75C75.6563 110.266 75.4863 110.767 75.1726 111.176L60.094 130.844H74.875C79.2247 130.839 83.3949 129.109 86.4706 126.033C89.5463 122.957 91.2764 118.787 91.2813 114.438V109.75C91.2813 109.364 91.3765 108.984 91.5586 108.644C91.7407 108.304 92.0039 108.014 92.325 107.8L94.0874 106.625ZM78.1238 115.702C77.8796 115.515 77.6008 115.378 77.3035 115.298C77.0062 115.219 76.6961 115.199 76.3909 115.239C76.0858 115.279 75.7916 115.379 75.5251 115.533C75.2586 115.687 75.0251 115.892 74.8379 116.137L68.8484 123.949C68.6609 124.193 68.5234 124.472 68.4437 124.77C68.364 125.067 68.3436 125.377 68.3839 125.682C68.4241 125.988 68.5241 126.282 68.6781 126.549C68.8322 126.815 69.0372 127.049 69.2816 127.236C69.5259 127.424 69.8048 127.561 70.1023 127.64C70.3998 127.72 70.71 127.74 71.0152 127.7C71.3205 127.659 71.6148 127.559 71.8813 127.405C72.1478 127.251 72.3813 127.045 72.5685 126.801L78.5579 118.988C78.7452 118.744 78.8825 118.465 78.9621 118.168C79.0416 117.871 79.0618 117.561 79.0215 117.256C78.9811 116.95 78.8811 116.656 78.7271 116.39C78.5731 116.123 78.3681 115.89 78.1238 115.702Z" fill="white"/>
</g>
<defs>
<clipPath id="clip0_180_30">
<rect width="50" height="50" fill="white" transform="translate(53 91)"/>
</clipPath>
</defs>
</svg>
